<svg width="800" height="800" viewBox="0 0 800 800" fill="none" xmlns="http://www.w3.org/2000/svg">
<path d="M556.25 320.937L635.375 413.562C637.334 417.37 638.282 421.617 638.129 425.897C637.975 430.176 636.725 434.345 634.498 438.002C632.271 441.66 629.141 444.684 625.41 446.785C621.678 448.886 617.47 449.993 613.188 450H472.938L447.938 306.25L556.25 320.937Z" fill="#4BC190"/>
<path opacity="0.3" d="M556.25 320.937L635.375 413.562C637.334 417.37 638.282 421.617 638.129 425.897C637.975 430.176 636.725 434.345 634.498 438.002C632.271 441.66 629.141 444.684 625.41 446.785C621.678 448.886 617.47 449.993 613.188 450H472.938L447.938 306.25L556.25 320.937Z" fill="#356CB6"/>
<path d="M561.5 489.813C587.388 489.813 608.375 468.826 608.375 442.938C608.375 417.049 587.388 396.062 561.5 396.062C535.612 396.062 514.625 417.049 514.625 442.938C514.625 468.826 535.612 489.813 561.5 489.813Z" fill="#FBC0AA"/>
<path d="M400 775C485.316 775.102 568.095 745.987 634.562 692.5L622.062 657.937C612.5 634.375 585.5 618.75 555.562 618.75H244.438C214.5 618.75 187.75 634.437 177.688 658L165.188 692.562C231.731 746.081 314.606 775.176 400 775Z" fill="#356CB6"/>
<path d="M464.125 636.625C464.125 672 435.375 694.438 400 694.438C364.625 694.438 335.875 672 335.875 636.625C335.875 601.25 364.625 615.25 400 615.25C435.375 615.25 464.125 601.188 464.125 636.625Z" fill="white"/>
<path d="M400 555.5V630.5" stroke="#FBC0AA" stroke-width="87.5" stroke-linecap="round" stroke-linejoin="round"/>
<path d="M238.5 489.813C264.388 489.813 285.375 468.826 285.375 442.938C285.375 417.049 264.388 396.062 238.5 396.062C212.612 396.062 191.625 417.049 191.625 442.938C191.625 468.826 212.612 489.813 238.5 489.813Z" fill="#FBC0AA"/>
<path d="M400 612.5C377.999 612.508 356.212 608.179 335.886 599.759C315.56 591.34 297.093 578.996 281.541 563.433C265.99 547.87 253.66 529.394 245.255 509.061C236.851 488.729 232.538 466.939 232.563 444.938V384.813C232.563 340.405 250.203 297.817 281.604 266.416C313.005 235.016 355.593 217.375 400 217.375C444.407 217.375 486.996 235.016 518.396 266.416C549.797 297.817 567.438 340.405 567.438 384.813V444.938C567.462 466.939 563.149 488.729 554.745 509.061C546.341 529.394 534.01 547.87 518.459 563.433C502.908 578.996 484.441 591.34 464.114 599.759C443.788 608.179 422.001 612.508 400 612.5Z" fill="#FFD8C9"/>
<path d="M400 196.125C413.807 196.125 425 184.932 425 171.125C425 157.318 413.807 146.125 400 146.125C386.193 146.125 375 157.318 375 171.125C375 184.932 386.193 196.125 400 196.125Z" fill="#4BC190"/>
<path opacity="0.3" d="M400 196.125C413.807 196.125 425 184.932 425 171.125C425 157.318 413.807 146.125 400 146.125C386.193 146.125 375 157.318 375 171.125C375 184.932 386.193 196.125 400 196.125Z" fill="#356CB6"/>
<path d="M568.25 356.25C569.973 356.255 571.679 355.903 573.26 355.217C574.841 354.531 576.264 353.526 577.437 352.264C578.611 351.002 579.512 349.511 580.082 347.884C580.652 346.258 580.879 344.531 580.75 342.812C574.125 250.188 499.5 174.063 405.75 171.25C307.812 168.313 226.5 247.063 219.5 342.875C219.38 344.589 219.614 346.309 220.188 347.928C220.762 349.547 221.664 351.03 222.837 352.285C224.01 353.54 225.429 354.54 227.005 355.222C228.582 355.904 230.282 356.254 232 356.25H568.25Z" fill="#4BC190"/>
<path opacity="0.4" d="M462.5 356.25C466 356.25 468.75 350 468.75 342.813C465.5 250.188 448.188 174.063 402.688 171.25C355.25 168.313 303.375 247.063 300 342.875C300 350 302.563 356.25 306.25 356.25H462.5Z" fill="white"/>
<path d="M441.687 325C441.687 356.25 328.75 356.25 328.75 325C328.75 310.024 334.699 295.661 345.289 285.071C355.879 274.481 370.242 268.531 385.219 268.531C400.195 268.531 414.558 274.481 425.148 285.071C435.738 295.661 441.687 310.024 441.687 325Z" fill="#393C54"/>
<path d="M300 325H471.875C476.019 325 479.993 326.646 482.924 329.576C485.854 332.507 487.5 336.481 487.5 340.625C487.5 344.769 485.854 348.743 482.924 351.674C479.993 354.604 476.019 356.25 471.875 356.25H300C298.342 356.25 296.753 355.592 295.581 354.419C294.408 353.247 293.75 351.658 293.75 350V331.25C293.75 329.592 294.408 328.003 295.581 326.831C296.753 325.658 298.342 325 300 325Z" fill="#4BC190"/>
<path opacity="0.3" d="M300 325H471.875C476.019 325 479.993 326.646 482.924 329.576C485.854 332.507 487.5 336.481 487.5 340.625C487.5 344.769 485.854 348.743 482.924 351.674C479.993 354.604 476.019 356.25 471.875 356.25H300C298.342 356.25 296.753 355.592 295.581 354.419C294.408 353.247 293.75 351.658 293.75 350V331.25C293.75 329.592 294.408 328.003 295.581 326.831C296.753 325.658 298.342 325 300 325Z" fill="#356CB6"/>
<path d="M466.688 346.875C470.139 346.875 472.938 344.077 472.938 340.625C472.938 337.173 470.139 334.375 466.688 334.375C463.236 334.375 460.438 337.173 460.438 340.625C460.438 344.077 463.236 346.875 466.688 346.875Z" fill="#393C54"/>
<path d="M441.688 346.875C445.139 346.875 447.938 344.077 447.938 340.625C447.938 337.173 445.139 334.375 441.688 334.375C438.236 334.375 435.438 337.173 435.438 340.625C435.438 344.077 438.236 346.875 441.688 346.875Z" fill="#393C54"/>
<path d="M416.688 346.875C420.139 346.875 422.938 344.077 422.938 340.625C422.938 337.173 420.139 334.375 416.688 334.375C413.236 334.375 410.438 337.173 410.438 340.625C410.438 344.077 413.236 346.875 416.688 346.875Z" fill="#393C54"/>
<path d="M391.688 346.875C395.139 346.875 397.938 344.077 397.938 340.625C397.938 337.173 395.139 334.375 391.688 334.375C388.236 334.375 385.438 337.173 385.438 340.625C385.438 344.077 388.236 346.875 391.688 346.875Z" fill="#393C54"/>
<path d="M366.688 346.875C370.139 346.875 372.938 344.077 372.938 340.625C372.938 337.173 370.139 334.375 366.688 334.375C363.236 334.375 360.438 337.173 360.438 340.625C360.438 344.077 363.236 346.875 366.688 346.875Z" fill="#393C54"/>
<path d="M341.688 346.875C345.139 346.875 347.938 344.077 347.938 340.625C347.938 337.173 345.139 334.375 341.688 334.375C338.236 334.375 335.438 337.173 335.438 340.625C335.438 344.077 338.236 346.875 341.688 346.875Z" fill="#393C54"/>
</svg>
